<svg xmlns="http://www.w3.org/2000/svg" viewBox="0 0 24 24">
  <rect width="24" height="24" rx="6" fill="#010101"/>
  <path d="M19.59 6.69a4.83 4.83 0 01-3.77-4.25V2h-3.45v13.67a2.89 2.89 0 01-2.88 2.5 2.89 2.89 0 01-2.89-2.89 2.89 2.89 0 012.89-2.89c.28 0 .54.04.79.1V9.01a6.33 6.33 0 00-.79-.05 6.34 6.34 0 00-6.34 6.34 6.34 6.34 0 006.34 6.34 6.34 6.34 0 006.33-6.34V8.69a8.22 8.22 0 004.84 1.56V6.81a4.85 4.85 0 01-1.07-.12z" fill="white"/>
  <path d="M19.59 6.69a4.83 4.83 0 01-3.77-4.25V2h-3.45v13.67a2.89 2.89 0 01-2.88 2.5 2.89 2.89 0 01-2.89-2.89 2.89 2.89 0 012.89-2.89c.28 0 .54.04.79.1V9.01a6.33 6.33 0 00-.79-.05 6.34 6.34 0 00-6.34 6.34 6.34 6.34 0 006.34 6.34 6.34 6.34 0 006.33-6.34V8.69a8.22 8.22 0 004.84 1.56V6.81a4.85 4.85 0 01-1.07-.12z" fill="#EE1D52" opacity="0.6"/>
  <path d="M15.82 2.44a4.83 4.83 0 003.77 4.25V2h-3.77z" fill="#69C9D0"/>
</svg>
